<svg xmlns="http://www.w3.org/2000/svg" height="800" width="1200" viewBox="-21.448845 -7.9042 185.88999 47.4252"><path d="M51.9956 21.5347v-.0573c0-2.644-1.9364-4.829-4.6857-4.829-2.8066 0-4.5995 2.161-4.5995 4.7716v.0574c0 2.6153 1.9364 4.8003 4.657 4.8003 2.8352 0 4.6282-2.161 4.6282-4.743zm-12.7851 0v-.0573c0-4.2888 3.4712-7.8413 8.1568-7.8413 4.6856 0 8.1281 3.4951 8.1281 7.7839v.0574c0 4.26-3.4711 7.8125-8.1855 7.8125-4.6569 0-8.0994-3.495-8.0994-7.7552zm30.4566-.0525v-.0574c0-2.8975-1.9938-4.8004-4.3653-4.8004s-4.4561 1.9316-4.4561 4.8004v.0574c0 2.8687 2.0846 4.8003 4.456 4.8003 2.4003 0 4.3654-1.8455 4.3654-4.8003zM57.4318 9.7729c0-.9658.7507-1.707 1.7356-1.707.985 0 1.7643.7364 1.7643 1.707v6.6794c1.1284-1.5635 2.7206-2.8114 5.2068-2.8114 3.586 0 7.0858 2.7827 7.0858 7.7839v.0574c0 4.9725-3.4712 7.7838-7.0858 7.7838-2.5436 0-4.1358-1.2479-5.2068-2.644v.7698c0 .9371-.7793 1.7069-1.7643 1.7069-.9562 0-1.7356-.765-1.7356-1.707zm17.9919 5.7423c0-.9659.7506-1.7309 1.7356-1.7309s1.7643.765 1.7643 1.7309v11.8766c0 .9658-.7794 1.7069-1.7643 1.7069-.9563 0-1.7356-.7363-1.7356-1.707zm-.263-5.5989c0-1.0232.8654-1.6782 1.9938-1.6782s1.9938.655 1.9938 1.6782v.1721c0 1.0232-.8654 1.707-1.9938 1.707s-1.9938-.6838-1.9938-1.707zm7.1145.7363c0-.9658.7794-1.7356 1.793-1.7356.985 0 1.7643.7698 1.7643 1.7356v8.4102l9.6007-9.4907c.4064-.4256.8367-.655 1.4726-.655.985 0 1.6496.7697 1.6496 1.6208 0 .5403-.2295.9371-.636 1.3053l-6.3064 5.967 6.8276 8.3241c.2917.3682.4925.7124.4925 1.2527 0 .9658-.7793 1.707-1.793 1.707-.6933 0-1.1283-.3396-1.506-.8225l-6.5073-8.1568-3.2991 3.127v4.1214c0 .9658-.7794 1.7308-1.7643 1.7308-1.0136 0-1.793-.765-1.793-1.7308V10.6574zm20.8271 17.0213l-4.107-11.4224c-.0861-.2248-.1722-.5977-.1722-.8798 0-.8224.6646-1.5921 1.707-1.5921.8653 0 1.4439.569 1.7068 1.3626l2.95 9.094 2.9788-9.094c.2582-.7937.894-1.3626 1.793-1.3626h.2008c.8988 0 1.5348.569 1.793 1.3626l3.0073 9.094 2.9788-9.1227c.2295-.741.7793-1.334 1.7069-1.334.9562 0 1.6495.7412 1.6495 1.5922 0 .2534-.0861.5977-.1434.765L116.987 27.674c-.3777 1.0518-1.0997 1.5348-1.9364 1.5348h-.1148c-.8654 0-1.5921-.483-1.9077-1.4775l-2.9787-8.9218-3.0074 8.9218c-.3203.9945-1.0423 1.4775-1.879 1.4775h-.1148c-.8654 0-1.5921-.483-1.9364-1.5348zm20.0717-12.1587c0-.9659.7507-1.7309 1.7356-1.7309.985 0 1.7643.765 1.7643 1.7309v11.8766c0 .9658-.7793 1.7069-1.7643 1.7069-.9562 0-1.7356-.7363-1.7356-1.707zm-.263-5.5989c0-1.0232.8655-1.6782 1.9938-1.6782 1.1284 0 1.9938.655 1.9938 1.6782v.1721c0 1.0232-.8654 1.707-1.9938 1.707-1.1283 0-1.9937-.6838-1.9937-1.707zm6.713-.1434c0-.9371.7506-1.707 1.7355-1.707.985 0 1.7643.765 1.7643 1.707v11.083l6.5647-6.3352c.4638-.4543.8988-.7364 1.506-.7364.9276 0 1.5348.7364 1.5348 1.5635 0 .569-.2916.9945-.7793 1.4487l-4.0497 3.6672 4.6282 5.9384c.3204.4255.4638.741.4638 1.1379 0 .9371-.7506 1.5635-1.6495 1.5635-.6933 0-1.0997-.2248-1.5348-.765l-4.3653-5.7136-2.3141 2.1611v2.6153c0 .9659-.7793 1.707-1.7643 1.707-.9562 0-1.7356-.7364-1.7356-1.707V9.7824zM39.617 14.162c-.8798 0-1.597-.7029-1.597-1.5683 0-.8654.7172-1.573 1.597-1.573.8844 0 1.6016.7076 1.6016 1.573s-.7172 1.5683-1.6017 1.5683zm2.95-2.4146c-.306-2.8018-3.1892-1.6782-3.1892-1.6782-2.0463.7794-2.5149.4494-2.5149.4494l.3825-5.4554c-.2151-2.5484-3.6242-1.6638-3.6242-1.6638 1.8456.8367 1.4679 1.8168 1.4679 1.8168s-2.0082 20.0813-2.2377 21.3674c-.2295 1.2862-2.008.7603-2.008.7603v2.1993h2.314c1.6974 0 1.8504-2.2758 1.8504-2.2758l1.1331-10.6622c1.7882-.2965 3.1891-.7029 3.1891-.7029 3.7963-1.267 3.237-4.15 3.237-4.15zm-2.056.8463c0 .483-.4016.875-.894.875-.4878 0-.8894-.3969-.8894-.875s.4016-.8797.8893-.8797c.4925 0 .8941.392.8941.8797zM18.675 17.246l5.599-10.6048c.0096-.0144.0191-.0287.0287-.0383.263-.6598.875-1.138 1.6065-1.2336-.722.0192-1.42.4017-1.7787 1.0806L18.675 16.7965v.4542zM2.2084 29.247c-.9897-.5117-1.377-1.731-.851-2.6967L14.85 1.3866c.287-.5403.8033-.8894 1.3723-1.0089.0334-.0095.0621-.0143.0908-.0239.0765-.0096.1673-.0239.2534-.0239.0335 0 .0717-.0096.1004-.0096a.323.323 0 01.0717.0096c.0622 0 .1196.0096.1817.0191.0813.0096.1626.024.2486.0478.0335.0048.067.0192.1004.0335.1004.0287.196.067.2917.1148.0096.0047.024.0047.024.0143a.067.067 0 01.0334.0191c.11.0526.196.1148.282.1865.0192.0143.0383.024.0527.0382l.11.11c-.0335-.0478-.0622-.1052-.1005-.1482a.0964.0964 0 01-.0334-.043c-.0765-.086-.153-.1626-.2487-.239-.0143-.0097-.0334-.0288-.0526-.0431-.0908-.0622-.1816-.1291-.282-.1817-.0097-.0048-.024-.0191-.0335-.0287-.0144-.0048-.0287-.0048-.043-.0096-.0909-.043-.1817-.086-.287-.1147-.0382-.0144-.0717-.024-.1147-.0383-.0765-.019-.1625-.0286-.2438-.043a1.2246 1.2246 0 00-.1865-.0143C16.4087.0096 16.3896 0 16.361 0c-.0287 0-.0622.0096-.1052.0096a4.7081 4.7081 0 00-.2582.0239c-.0334.0095-.0621.0143-.0956.0239-.5785.1195-1.1045.4733-1.4009 1.028L.7358 26.7653c-.5355.9898-.1482 2.2329.8654 2.754.698.3634 1.5109.2821 2.1276-.1243-.4924.1435-1.047.11-1.5347-.1386zm14.4633-2.0273c-1.0997 0-2.0081-.8894-2.0081-1.97V10.2989l-.3347.6216v14.5158c0 1.1045.9228 2.013 2.0464 2.013.5546 0 1.0566-.22 1.4295-.5786-.3299.22-.7171.349-1.1379.349zm9.4956-1.0615c-1.1045 0-2.0082-.8893-2.0082-1.9699v-8.7592l-.3203.6263v8.439c0 1.1283.9371 2.0607 2.0894 2.0607.9036 0 1.6782-.5834 1.965-1.3818-.3442.588-.9896.9897-1.726.9897zm5.8379-24.8816S25.5839 2.3428 18.675 3.476v13.77l5.599-10.6048c.0096-.0144.0191-.0287.0287-.0383.2964-.7315 1.0184-1.2527 1.8599-1.2527 1.1044 0 2.0081.8893 2.0081 1.9699v16.8635c0 1.0853-.9037 1.9698-2.0081 1.9698-1.1045 0-2.0082-.8893-2.0082-1.9698v-8.7593l-5.331 10.1267a1.8325 1.8325 0 01-.2774.3777c-.2868.7507-1.0184 1.291-1.879 1.291-1.0997 0-2.0081-.8894-2.0081-1.97V10.2989L4.948 28.4054c-.5164.9658-1.7595 1.3483-2.7445.8367-.9897-.5116-1.377-1.7308-.851-2.6966L13.2483 4.3557C7.5538 5.2881 2.6148 6.0913 1.9741 6.1726.382 6.3734.0234 7.736.0234 7.736s-.0526 21.463 0 22.5292c.0478 1.0614 1.1857 1.2623 1.1857 1.2623s26.8372.2008 28.2237 0c1.3914-.2009 1.6448-1.7643 1.6448-1.7643l2.7253-27.1288c-.1004-1.769-1.7977-1.3675-1.7977-1.3675z" fill="#0072CF"/></svg>