<?xml version="1.0" encoding="utf-8"?>
<!-- Uploaded to: SVG Repo, www.svgrepo.com, Generator: SVG Repo Mixer Tools -->
<svg fill="#000000" width="800px" height="800px" viewBox="0 0 32 32" version="1.1" xmlns="http://www.w3.org/2000/svg">
<title>pinterest</title>
<path d="M16.021 1.004c-0 0-0.001 0-0.002 0-8.273 0-14.979 6.706-14.979 14.979 0 6.308 3.899 11.705 9.419 13.913l0.101 0.036c-0.087-0.595-0.137-1.281-0.137-1.979 0-0.819 0.068-1.622 0.2-2.403l-0.012 0.084c0.274-1.171 1.757-7.444 1.757-7.444-0.284-0.636-0.449-1.379-0.449-2.16 0-0.023 0-0.046 0-0.069l-0 0.004c0-2.078 1.208-3.638 2.709-3.638 0.008-0 0.018-0 0.028-0 1.040 0 1.883 0.843 1.883 1.883 0 0.080-0.005 0.159-0.015 0.236l0.001-0.009c-0.307 1.903-0.738 3.583-1.304 5.199l0.064-0.21c-0.042 0.161-0.067 0.345-0.067 0.535 0 1.2 0.973 2.173 2.173 2.173 0.039 0 0.078-0.001 0.117-0.003l-0.005 0c2.659 0 4.709-2.805 4.709-6.857 0.002-0.054 0.003-0.118 0.003-0.182 0-3.265-2.647-5.913-5.913-5.913-0.123 0-0.244 0.004-0.365 0.011l0.017-0.001c-0.083-0.004-0.18-0.006-0.277-0.006-3.58 0-6.482 2.902-6.482 6.482 0 0.007 0 0.014 0 0.022v-0.001c0 0 0 0.001 0 0.001 0 1.287 0.417 2.476 1.122 3.441l-0.011-0.016c0.076 0.081 0.122 0.191 0.122 0.311 0 0.043-0.006 0.084-0.017 0.123l0.001-0.003c-0.112 0.469-0.366 1.498-0.417 1.703-0.066 0.281-0.215 0.339-0.501 0.206-1.843-1.214-3.043-3.274-3.043-5.614 0-0.068 0.001-0.135 0.003-0.202l-0 0.010c0-4.719 3.434-9.062 9.897-9.062 0.132-0.007 0.287-0.011 0.442-0.011 4.811 0 8.72 3.862 8.795 8.655l0 0.007c0 5.167-3.258 9.325-7.789 9.325-0.039 0.001-0.086 0.002-0.132 0.002-1.366 0-2.573-0.677-3.306-1.713l-0.008-0.013-0.936 3.559c-0.488 1.499-1.123 2.8-1.91 3.992l0.038-0.061c1.325 0.425 2.85 0.671 4.432 0.671 8.274 0 14.981-6.707 14.981-14.981 0-8.272-6.705-14.978-14.977-14.981h-0z"></path>
</svg>